<svg viewBox="-16 -16 96.00 96.00" xmlns="http://www.w3.org/2000/svg" fill="#ffffff" stroke="#ffffff"><g id="SVGRepo_bgCarrier" stroke-width="0"><rect x="-16" y="-16" width="96.00" height="96.00" rx="48" fill="#bc202c" strokewidth="0"></rect></g><g id="SVGRepo_tracerCarrier" stroke-linecap="round" stroke-linejoin="round"></g><g id="SVGRepo_iconCarrier"> <g id="a"></g> <g id="b"></g> <g id="c"></g> <g id="d"></g> <g id="e"></g> <g id="f"></g> <g id="g"></g> <g id="h"></g> <g id="i"></g> <g id="j"></g> <g id="k"></g> <g id="l"></g> <g id="m"></g> <g id="n"></g> <g id="o"> <path d="M15.64,5c-1.85,0-3.34,1.49-3.34,3.34v9.44l19.7,1.88,19.7-1.88V8.34c0-1.85-1.49-3.34-3.34-3.34H15.64Z" fill="#9e2e2e" fill-rule="evenodd"></path> <path d="M51.7,17.79H12.3V55.66c0,1.85,1.49,3.34,3.34,3.34H48.36c1.85,0,3.34-1.49,3.34-3.34V17.79Z" fill="#9e2e2e" fill-rule="evenodd"></path> <path d="M45.3,5c1.85,0,3.34,1.49,3.34,3.34v9.84l3.06-.4V8.34c0-1.85-1.49-3.34-3.34-3.34h-3.06Z" fill="#9e2e2e" fill-rule="evenodd"></path> <path d="M48.64,17.79V55.66c0,1.85-1.49,3.34-3.34,3.34h3.06c1.85,0,3.34-1.49,3.34-3.34V17.79h-3.06Z" fill="#9e2e2e" fill-rule="evenodd"></path> <path d="M20.51,24.7c0,1.23-1,2.23-2.22,2.23s-2.23-1-2.23-2.23,1-2.23,2.23-2.23,2.22,1,2.22,2.23Z" fill="#9e2e2e" fill-rule="evenodd"></path> <path d="M29.65,24.7c0,1.23-1,2.23-2.23,2.23s-2.23-1-2.23-2.23,1-2.23,2.23-2.23,2.23,1,2.23,2.23Z" fill="#9e2e2e" fill-rule="evenodd"></path> <path d="M38.8,24.7c0,1.23-1,2.23-2.22,2.23s-2.23-1-2.23-2.23,1-2.23,2.23-2.23,2.22,1,2.22,2.23Z" fill="#9e2e2e" fill-rule="evenodd"></path> <path d="M47.94,24.7c0,1.23-1,2.23-2.23,2.23s-2.23-1-2.23-2.23,1-2.23,2.23-2.23,2.23,1,2.23,2.23Z" fill="#9e2e2e" fill-rule="evenodd"></path> <path d="M20.51,33.83c0,1.23-1,2.23-2.22,2.23s-2.23-1-2.23-2.23,1-2.23,2.23-2.23,2.22,1,2.22,2.23Z" fill="#9e2e2e" fill-rule="evenodd"></path> <path d="M29.65,33.83c0,1.23-1,2.23-2.23,2.23s-2.23-1-2.23-2.23,1-2.23,2.23-2.23,2.23,1,2.23,2.23Z" fill="#9e2e2e" fill-rule="evenodd"></path> <path d="M38.8,33.83c0,1.23-1,2.23-2.22,2.23s-2.23-1-2.23-2.23,1-2.23,2.23-2.23,2.22,1,2.22,2.23Z" fill="#9e2e2e" fill-rule="evenodd"></path> <path d="M47.94,33.83c0,1.23-1,2.23-2.23,2.23s-2.23-1-2.23-2.23,1-2.23,2.23-2.23,2.23,1,2.23,2.23Z" fill="#9e2e2e" fill-rule="evenodd"></path> <path d="M20.51,42.96c0,1.23-1,2.23-2.22,2.23s-2.23-1-2.23-2.23,1-2.23,2.23-2.23,2.22,1,2.22,2.23Z" fill="#9e2e2e" fill-rule="evenodd"></path> <path d="M29.65,42.96c0,1.23-1,2.23-2.23,2.23s-2.23-1-2.23-2.23,1-2.23,2.23-2.23,2.23,1,2.23,2.23Z" fill="#9e2e2e" fill-rule="evenodd"></path> <path d="M38.8,42.96c0,1.23-1,2.23-2.22,2.23s-2.23-1-2.23-2.23,1-2.23,2.23-2.23,2.22,1,2.22,2.23Z" fill="#9e2e2e" fill-rule="evenodd"></path> <path d="M47.94,42.96c0,1.23-1,2.23-2.23,2.23s-2.23-1-2.23-2.23,1-2.23,2.23-2.23,2.23,1,2.23,2.23Z" fill="#9e2e2e" fill-rule="evenodd"></path> <path d="M20.51,52.09c0,1.23-1,2.23-2.22,2.23s-2.23-1-2.23-2.23,1-2.22,2.23-2.22,2.22,1,2.22,2.22Z" fill="#9e2e2e" fill-rule="evenodd"></path> <path d="M29.65,52.09c0,1.23-1,2.23-2.23,2.23s-2.23-1-2.23-2.23,1-2.22,2.23-2.22,2.23,1,2.23,2.22Z" fill="#9e2e2e" fill-rule="evenodd"></path> <path d="M38.8,52.09c0,1.23-1,2.23-2.22,2.23s-2.23-1-2.23-2.23,1-2.22,2.23-2.22,2.22,1,2.22,2.22Z" fill="#9e2e2e" fill-rule="evenodd"></path> <path d="M47.94,52.09c0,1.23-1,2.23-2.23,2.23s-2.23-1-2.23-2.23,1-2.22,2.23-2.22,2.23,1,2.23,2.22Z" fill="#9e2e2e" fill-rule="evenodd"></path> <path d="M48.36,4H15.64c-2.39,0-4.34,1.95-4.34,4.34V55.66c0,2.39,1.95,4.34,4.34,4.34H48.36c2.39,0,4.34-1.95,4.34-4.34V8.34c0-2.39-1.95-4.34-4.34-4.34ZM15.64,6H48.36c1.29,0,2.34,1.05,2.34,2.34v8.45H13.3V8.34c0-1.29,1.05-2.34,2.34-2.34ZM48.36,58H15.64c-1.29,0-2.34-1.05-2.34-2.34V18.79H50.7V55.66c0,1.29-1.05,2.34-2.34,2.34Z"></path> <path d="M18.58,14.55h2.46c.55,0,1-.45,1-1s-.45-1-1-1h-1.46v-3.32c0-.55-.45-1-1-1s-1,.45-1,1v4.32c0,.55,.45,1,1,1Z"></path> <path d="M25.56,14.55c1.46,0,2.65-1.19,2.65-2.65v-1.01c0-1.46-1.19-2.65-2.65-2.65s-2.65,1.19-2.65,2.65v1.01c0,1.46,1.19,2.65,2.65,2.65Zm-.65-3.67c0-.37,.29-.65,.65-.65s.65,.29,.65,.65v1.01c0,.37-.29,.65-.65,.65s-.65-.29-.65-.65v-1.01Z"></path> <path d="M30.08,10.24h.57v3.32c0,.55,.45,1,1,1s1-.45,1-1v-3.32h.57c.55,0,1-.45,1-1s-.45-1-1-1h-3.15c-.55,0-1,.45-1,1s.45,1,1,1Z"></path> <path d="M43.77,14.55c1.46,0,2.65-1.19,2.65-2.65v-1.01c0-1.46-1.19-2.65-2.65-2.65s-2.65,1.19-2.65,2.65v1.01c0,1.46,1.19,2.65,2.65,2.65Zm-.65-3.67c0-.37,.29-.65,.65-.65s.65,.29,.65,.65v1.01c0,.37-.29,.65-.65,.65s-.65-.29-.65-.65v-1.01Z"></path> <path d="M36.1,10.24h.57v3.32c0,.55,.45,1,1,1s1-.45,1-1v-3.32h.57c.55,0,1-.45,1-1s-.45-1-1-1h-3.15c-.55,0-1,.45-1,1s.45,1,1,1Z"></path> <path d="M18.28,21.47c-1.78,0-3.23,1.45-3.23,3.23s1.45,3.22,3.23,3.22,3.23-1.45,3.23-3.22-1.45-3.23-3.23-3.23Zm0,4.45c-.66,0-1.23-.56-1.23-1.22s.56-1.23,1.23-1.23,1.23,.56,1.23,1.23-.56,1.22-1.23,1.22Z"></path> <path d="M27.43,21.47c-1.78,0-3.22,1.45-3.22,3.23s1.45,3.22,3.22,3.22,3.23-1.45,3.23-3.22-1.45-3.23-3.23-3.23Zm0,4.45c-.66,0-1.22-.56-1.22-1.22s.56-1.23,1.22-1.23,1.23,.56,1.23,1.23-.56,1.22-1.23,1.22Z"></path> <path d="M36.57,21.47c-1.78,0-3.23,1.45-3.23,3.23s1.45,3.22,3.23,3.22,3.22-1.45,3.22-3.22-1.45-3.23-3.22-3.23Zm0,4.45c-.66,0-1.23-.56-1.23-1.22s.56-1.23,1.23-1.23,1.22,.56,1.22,1.23-.56,1.22-1.22,1.22Z"></path> <path d="M45.72,21.47c-1.78,0-3.23,1.45-3.23,3.23s1.45,3.22,3.23,3.22,3.23-1.45,3.23-3.22-1.45-3.23-3.23-3.23Zm0,4.45c-.66,0-1.23-.56-1.23-1.22s.56-1.23,1.23-1.23,1.23,.56,1.23,1.23-.56,1.22-1.23,1.22Z"></path> <path d="M18.28,30.6c-1.78,0-3.23,1.45-3.23,3.23s1.45,3.22,3.23,3.22,3.23-1.45,3.23-3.22-1.45-3.23-3.23-3.23Zm0,4.45c-.66,0-1.23-.56-1.23-1.22s.56-1.23,1.23-1.23,1.23,.56,1.23,1.23-.56,1.22-1.23,1.22Z"></path> <path d="M27.43,30.6c-1.78,0-3.22,1.45-3.22,3.23s1.45,3.22,3.22,3.22,3.23-1.45,3.23-3.22-1.45-3.23-3.23-3.23Zm0,4.45c-.66,0-1.22-.56-1.22-1.22s.56-1.23,1.22-1.23,1.23,.56,1.23,1.23-.56,1.22-1.23,1.22Z"></path> <path d="M36.57,30.6c-1.78,0-3.23,1.45-3.23,3.23s1.45,3.22,3.23,3.22,3.22-1.45,3.22-3.22-1.45-3.23-3.22-3.23Zm0,4.45c-.66,0-1.23-.56-1.23-1.22s.56-1.23,1.23-1.23,1.22,.56,1.22,1.23-.56,1.22-1.22,1.22Z"></path> <path d="M45.72,30.6c-1.78,0-3.23,1.45-3.23,3.23s1.45,3.22,3.23,3.22,3.23-1.45,3.23-3.22-1.45-3.23-3.23-3.23Zm0,4.45c-.66,0-1.23-.56-1.23-1.22s.56-1.23,1.23-1.23,1.23,.56,1.23,1.23-.56,1.22-1.23,1.22Z"></path> <path d="M18.28,39.74c-1.78,0-3.23,1.45-3.23,3.22s1.45,3.22,3.23,3.22,3.23-1.45,3.23-3.22-1.45-3.22-3.23-3.22Zm0,4.45c-.66,0-1.23-.56-1.23-1.22s.56-1.22,1.23-1.22,1.23,.56,1.23,1.22-.56,1.22-1.23,1.22Z"></path> <path d="M27.43,39.74c-1.78,0-3.22,1.45-3.22,3.22s1.45,3.22,3.22,3.22,3.23-1.45,3.23-3.22-1.45-3.22-3.23-3.22Zm0,4.45c-.66,0-1.22-.56-1.22-1.22s.56-1.22,1.22-1.22,1.23,.56,1.23,1.22-.56,1.22-1.23,1.22Z"></path> <path d="M36.57,39.74c-1.78,0-3.23,1.45-3.23,3.22s1.45,3.22,3.23,3.22,3.22-1.45,3.22-3.22-1.45-3.22-3.22-3.22Zm0,4.45c-.66,0-1.23-.56-1.23-1.22s.56-1.22,1.23-1.22,1.22,.56,1.22,1.22-.56,1.22-1.22,1.22Z"></path> <path d="M45.72,39.74c-1.78,0-3.23,1.45-3.23,3.22s1.45,3.22,3.23,3.22,3.23-1.45,3.23-3.22-1.45-3.22-3.23-3.22Zm0,4.45c-.66,0-1.23-.56-1.23-1.22s.56-1.22,1.23-1.22,1.23,.56,1.23,1.22-.56,1.22-1.23,1.22Z"></path> <path d="M18.28,48.87c-1.78,0-3.23,1.45-3.23,3.22s1.45,3.23,3.23,3.23,3.23-1.45,3.23-3.23-1.45-3.22-3.23-3.22Zm0,4.45c-.66,0-1.23-.56-1.23-1.23s.56-1.22,1.23-1.22,1.23,.56,1.23,1.22-.56,1.23-1.23,1.23Z"></path> <path d="M27.43,48.87c-1.78,0-3.22,1.45-3.22,3.22s1.45,3.23,3.22,3.23,3.23-1.45,3.23-3.23-1.45-3.22-3.23-3.22Zm0,4.45c-.66,0-1.22-.56-1.22-1.23s.56-1.22,1.22-1.22,1.23,.56,1.23,1.22-.56,1.23-1.23,1.23Z"></path> <path d="M36.57,48.87c-1.78,0-3.23,1.45-3.23,3.22s1.45,3.23,3.23,3.23,3.22-1.45,3.22-3.23-1.45-3.22-3.22-3.22Zm0,4.45c-.66,0-1.23-.56-1.23-1.23s.56-1.22,1.23-1.22,1.22,.56,1.22,1.22-.56,1.23-1.22,1.23Z"></path> <path d="M45.72,48.87c-1.78,0-3.23,1.45-3.23,3.22s1.45,3.23,3.23,3.23,3.23-1.45,3.23-3.23-1.45-3.22-3.23-3.22Zm0,4.45c-.66,0-1.23-.56-1.23-1.23s.56-1.22,1.23-1.22,1.23,.56,1.23,1.22-.56,1.23-1.23,1.23Z"></path> </g> <g id="p"></g> <g id="q"></g> <g id="r"></g> <g id="s"></g> <g id="t"></g> <g id="u"></g> <g id="v"></g> <g id="w"></g> <g id="x"></g> <g id="y"></g> <g id="a`"></g> <g id="aa"></g> <g id="ab"></g> <g id="ac"></g> <g id="ad"></g> <g id="ae"></g> <g id="af"></g> <g id="ag"></g> <g id="ah"></g> <g id="ai"></g> <g id="aj"></g> <g id="ak"></g> <g id="al"></g> <g id="am"></g> <g id="an"></g> <g id="ao"></g> <g id="ap"></g> <g id="aq"></g> <g id="ar"></g> <g id="as"></g> <g id="at"></g> <g id="au"></g> <g id="av"></g> <g id="aw"></g> <g id="ax"></g> </g></svg>