<svg xmlns:dc="http://purl.org/dc/elements/1.1/" xmlns:cc="http://creativecommons.org/ns#" xmlns:rdf="http://www.w3.org/1999/02/22-rdf-syntax-ns#" xmlns:svg="http://www.w3.org/2000/svg" xmlns="http://www.w3.org/2000/svg" version="1.1" viewBox="-3.5 -3.5 21.00 21.00" id="svg2" fill="#000000"><g id="SVGRepo_bgCarrier" stroke-width="0"><rect x="-3.5" y="-3.5" width="21.00" height="21.00" rx="10.5" fill="#27a182" strokewidth="0"></rect></g><g id="SVGRepo_tracerCarrier" stroke-linecap="round" stroke-linejoin="round"></g><g id="SVGRepo_iconCarrier"> <metadata id="metadata8"> <rdf:rdf> <cc:work rdf:about=""> <dc:format>image/svg+xml</dc:format> <dc:type rdf:resource="http://purl.org/dc/dcmitype/StillImage"></dc:type> <dc:title></dc:title> </cc:work> </rdf:rdf> </metadata> <defs id="defs6"></defs> <rect width="14" height="14" x="0" y="0" id="canvas" style="fill:none;stroke:none;visibility:hidden"></rect> <path d="M 9.375,0.03125 C 9.228609,0.0143576 9.069653,0.0553473 8.9375,0.1875 L 6.03125,3.125 4.125,1.1875 C 3.913054,0.9017344 3.437513,0.8725487 3.1875,1.125 2.937487,1.3774513 2.966994,1.8484875 3.25,2.0625 L 5.15625,4 2,4 C 1,4 0,5 0,6 l 0,6 c 0,1 1,2 2,2 l 10,0 c 1,0 2,-1 2,-2 L 14,6 C 14,5 13,4 12,4 L 6.90625,4 9.8125,1.0625 C 10.20002,0.6749802 9.814172,0.0819271 9.375,0.03125 z M 6,6 c 3,0 4,0 4,3 0,3 -1,3 -4,3 C 3,12 2,12 2,9 2,6 3,6 6,6 z m 6,0.125 c 0.483249,0 0.875,0.3917508 0.875,0.875 0,0.4832492 -0.391751,0.875 -0.875,0.875 -0.483249,0 -0.875,-0.3917508 -0.875,-0.875 0,-0.4832492 0.391751,-0.875 0.875,-0.875 z m 0,3 c 0.483249,0 0.875,0.391751 0.875,0.875 0,0.483249 -0.391751,0.875 -0.875,0.875 -0.483249,0 -0.875,-0.391751 -0.875,-0.875 0,-0.483249 0.391751,-0.875 0.875,-0.875 z" id="electronics" style="fill:#ffffff;fill-opacity:1;stroke:none"></path> </g></svg>