<svg version="1.1" id="Icons" xmlns="http://www.w3.org/2000/svg" xmlns:xlink="http://www.w3.org/1999/xlink" viewBox="-8 -8 48.00 48.00" xml:space="preserve" fill="#000000"><g id="SVGRepo_bgCarrier" stroke-width="0"><rect x="-8" y="-8" width="48.00" height="48.00" rx="24" fill="#50992d" strokewidth="0"></rect></g><g id="SVGRepo_tracerCarrier" stroke-linecap="round" stroke-linejoin="round"></g><g id="SVGRepo_iconCarrier"> <style type="text/css"> .st0{fill:none;stroke:#ffffff;stroke-width:2;stroke-linecap:round;stroke-linejoin:round;stroke-miterlimit:10;} .st1{fill:none;stroke:#ffffff;stroke-width:2;stroke-linecap:round;stroke-linejoin:round;stroke-miterlimit:10;stroke-dasharray:3;} .st2{fill:none;stroke:#ffffff;stroke-width:2;stroke-linejoin:round;stroke-miterlimit:10;} .st3{fill:none;} </style> <path class="st0" d="M3,24l2.6-4.2c1.5-2.3,4-3.8,6.8-3.8H19v0c0,2.2-1.8,4-4,4h-2"></path> <path class="st0" d="M15,20h8l1.2-1.6c1.1-1.5,2.9-2.4,4.8-2.4h0l-2.7,4.8c-1.4,2.6-4.2,4.2-7.1,4.2h0c-4.7,0-9.3,1.4-13.2,4l0,0"></path> <rect x="9" y="7" class="st0" width="16" height="4"></rect> <path class="st0" d="M17,7h-1.7C14,7,13,6,13,4.7v0C13,3.8,13.8,3,14.7,3h0C16,3,17,4,17,5.3V7z"></path> <path class="st0" d="M17,7h1.7C20,7,21,6,21,4.7v0C21,3.8,20.2,3,19.3,3h0C18,3,17,4,17,5.3V7z"></path> <polyline class="st0" points="10.8,16 10.8,11 23.2,11 23.2,20 "></polyline> <rect x="-504" y="-432" class="st3" width="536" height="680"></rect> </g></svg>