<svg viewBox="-7.5 -7.5 45.00 45.00" id="Layer_1" version="1.1" xml:space="preserve" xmlns="http://www.w3.org/2000/svg" xmlns:xlink="http://www.w3.org/1999/xlink" fill="#000000"><g id="SVGRepo_bgCarrier" stroke-width="0"><rect x="-7.5" y="-7.5" width="45.00" height="45.00" rx="22.5" fill="#f27b12" strokewidth="0"></rect></g><g id="SVGRepo_tracerCarrier" stroke-linecap="round" stroke-linejoin="round"></g><g id="SVGRepo_iconCarrier"><style type="text/css"> .st0{fill:#ffffff;} .st1{fill:#ffffff;} .st2{fill:#ffffff;} .st3{fill:#ffffff;} .st4{fill:#ffffff;} .st5{fill:#ffffff;} .st6{fill:#ffffff;} .st7{fill:#ffffff;} .st8{fill:#C6C9CC;} </style><path class="st2" d="M24.1,4.9C21,4.7,18,4,15,3c-2.9,1-5.9,1.7-9.1,1.9C5.4,5,5,5.4,5,5.9v11.1c0,3,1.7,5.8,4.4,7.2l5.1,2.6 c0.1,0.1,0.3,0.1,0.4,0.1c0.2,0,0.3,0,0.4-0.1l5.1-2.6c2.7-1.4,4.4-4.1,4.4-7.2V5.9C25,5.4,24.6,5,24.1,4.9z M19.7,22.4L15,24.8V15 H7V6.9c2.7-0.3,5.4-0.9,8-1.7V15h8v2.1C23,19.3,21.7,21.4,19.7,22.4z"></path></g></svg>